<?xml version="1.0" encoding="UTF-8" standalone="no"?>
<!-- Created with Inkscape (http://www.inkscape.org/) -->

<svg
   xmlns:dc="http://purl.org/dc/elements/1.1/"
   xmlns:cc="http://creativecommons.org/ns#"
   xmlns:rdf="http://www.w3.org/1999/02/22-rdf-syntax-ns#"
   xmlns:svg="http://www.w3.org/2000/svg"
   xmlns="http://www.w3.org/2000/svg"
   xmlns:sodipodi="http://sodipodi.sourceforge.net/DTD/sodipodi-0.dtd"
   xmlns:inkscape="http://www.inkscape.org/namespaces/inkscape"
   id="svg2876"
   version="1.1"
   inkscape:version="0.47 r22583"
   width="1056"
   height="895"
   sodipodi:docname="LEXUS_IKON.svg">
  <metadata
     id="metadata2882">
    <rdf:RDF>
      <cc:Work
         rdf:about="">
        <dc:format>image/svg+xml</dc:format>
        <dc:type
           rdf:resource="http://purl.org/dc/dcmitype/StillImage" />
        <dc:title></dc:title>
      </cc:Work>
    </rdf:RDF>
  </metadata>
  <defs
     id="defs2880">
    <inkscape:perspective
       sodipodi:type="inkscape:persp3d"
       inkscape:vp_x="0 : 0.5 : 1"
       inkscape:vp_y="0 : 1000 : 0"
       inkscape:vp_z="1 : 0.5 : 1"
       inkscape:persp3d-origin="0.5 : 0.33333333 : 1"
       id="perspective2884" />
    <filter
       id="filter2900"
       inkscape:label="Glowing bubble"
       inkscape:menu="Ridges"
       inkscape:menu-tooltip="Bubble effect with refraction and glow"
       x="-0.25"
       y="-0.25"
       width="1.5"
       height="1.5"
       color-interpolation-filters="sRGB">
      <feGaussianBlur
         id="feGaussianBlur2902"
         stdDeviation="1"
         result="result1" />
      <feGaussianBlur
         id="feGaussianBlur2904"
         stdDeviation="10"
         result="result6"
         in="result1" />
      <feComposite
         id="feComposite2906"
         in2="result1"
         operator="atop"
         in="result6"
         result="result8" />
      <feComposite
         id="feComposite2908"
         in2="result8"
         operator="xor"
         result="fbSourceGraphic"
         in="result6" />
      <feColorMatrix
         id="feColorMatrix2910"
         result="fbSourceGraphicAlpha"
         in="fbSourceGraphic"
         values="0 0 0 -1 0 0 0 0 -1 0 0 0 0 -1 0 0 0 0 2 0 " />
      <feGaussianBlur
         id="feGaussianBlur2912"
         result="result0"
         in="fbSourceGraphicAlpha"
         stdDeviation="1" />
      <feSpecularLighting
         id="feSpecularLighting2914"
         specularExponent="35"
         specularConstant="1.5"
         surfaceScale="-2"
         lighting-color="rgb(255,255,255)"
         result="result1"
         in="result0">
        <feDistantLight
           id="feDistantLight2916"
           azimuth="230"
           elevation="60" />
      </feSpecularLighting>
      <feComposite
         id="feComposite2918"
         in2="fbSourceGraphicAlpha"
         operator="in"
         result="result2"
         in="result1" />
      <feComposite
         id="feComposite2920"
         in2="result2"
         k3="1"
         k2="1"
         operator="arithmetic"
         result="result4"
         in="fbSourceGraphic" />
      <feComposite
         id="feComposite2922"
         in2="result4"
         operator="atop"
         in="result9"
         result="result91" />
      <feBlend
         id="feBlend2924"
         in2="result91"
         mode="multiply" />
    </filter>
  </defs>
  <sodipodi:namedview
     pagecolor="#ffffff"
     bordercolor="#666666"
     borderopacity="1"
     objecttolerance="10"
     gridtolerance="10"
     guidetolerance="10"
     inkscape:pageopacity="0"
     inkscape:pageshadow="2"
     inkscape:window-width="1440"
     inkscape:window-height="776"
     id="namedview2878"
     showgrid="false"
     inkscape:zoom="0.5273743"
     inkscape:cx="528"
     inkscape:cy="447.5"
     inkscape:window-x="0"
     inkscape:window-y="0"
     inkscape:window-maximized="0"
     inkscape:current-layer="g2888" />
  <g
     id="g2888"
     transform="translate(-1.8644068e-6,3.7923707)">
    <path
       style="fill:#f4d0d2"
       d="M 753.5,893.814 C 708.22509,891.91309 658.52121,884.40504 608.6489,871.93342 398.70723,819.43312 214.71894,679.93942 106.20834,491 42.079125,379.33777 6.2030518,258.23051 1.0453071,136 -0.51816275,98.9482 -0.39234722,87.364535 1.5817875,86.606989 2.4517706,86.273145 77.532374,86 168.42757,86 l 165.264,0 0.61514,20.25 c 2.7677,91.11053 34.80544,184.82057 88.36532,258.46764 16.22897,22.31551 28.19677,36.20876 49.79917,57.81116 37.03124,37.03124 72.46283,63.08946 117.0288,86.06901 63.28752,32.63294 141.7889,52.38542 208.25,52.39976 L 809,561 l 0,165.41821 c 0,90.98002 -0.27314,166.13002 -0.60699,167 -0.52452,1.36688 -2.93616,1.55827 -17.75,1.40865 C 781.21436,894.73163 764.5,894.27584 753.5,893.814 z m 25,-387.47071 c -35.22938,-4.19287 -57.33795,-10.36846 -85,-23.74306 C 666.11965,469.36182 647.55092,456.38196 626.14432,435.51746 603.25,413.20292 588.59074,393.13306 575.00276,365.5 560.34234,335.68599 553.43953,311.78159 550.02436,279 c -2.12049,-20.35423 -1.07213,-49.1919 2.58113,-71 6.33066,-37.79086 23.13005,-76.14187 47.74576,-108.99789 C 609.13975,87.271598 630.45987,65.257176 642.5,55.480771 663.02259,38.816734 692.18386,22.211414 716,13.627612 744.06482,3.5125049 763.83711,0.5375583 803,0.5375583 c 49.00034,0 73.52921,5.2647541 111.5,23.9318057 27.1402,13.342557 47.81427,28.040029 68.40244,48.628197 20.58816,20.588168 35.28566,41.262239 48.62816,68.402439 18.6671,37.97079 23.9318,62.49966 23.9318,111.5 0,49.00034 -5.2647,73.52921 -23.9318,111.5 -9.2753,18.86701 -18.1086,32.91578 -30.2617,48.12917 -40.65987,50.89851 -102.53231,85.33741 -166.82828,92.85852 -11.63658,1.3612 -47.13103,1.90408 -55.94062,0.8556 z"
       id="path2902" />
    <path
       style="fill:#eeafb1"
       d="M 755,893.83434 C 652.63665,889.18975 533.17423,856.34152 437.38193,806.49982 263.89997,716.23543 127.2428,565.75843 56.582292,387.19079 23.62328,303.89939 4.8324958,218.71402 1.0625739,135.5 -0.53155223,100.31263 -0.39405849,87.365192 1.5817875,86.606989 2.4517706,86.273145 77.09667,86 167.45934,86 c 130.24221,0 164.50087,0.259087 165.28529,1.25 0.54424,0.6875 1.25675,10.475 1.58337,21.75 2.32279,80.18349 26.40076,158.88399 70.47523,230.35311 18.89142,30.63345 38.66557,55.31402 67.09761,83.74605 37.64683,37.64684 71.47866,62.39155 117.59916,86.01244 23.90846,12.24485 42.94112,20.37045 65.39373,27.91848 44.5952,14.99184 97.02971,23.95843 140.15627,23.96749 7.64702,0.002 11.9555,0.40793 12.75,1.20243 0.92359,0.92359 1.2,39.02627 1.2,165.41821 0,90.32002 -0.27314,164.93002 -0.60699,165.8 -0.52431,1.36632 -2.94216,1.55957 -17.75,1.41866 C 781.21436,894.74716 765.175,894.29601 755,893.83434 z m 26.5,-387.49105 c -14.67166,-1.74617 -27.2806,-3.89045 -37.20388,-6.3269 C 696.07953,488.17782 655.62563,465.0009 620.98809,429.37054 582.1462,389.41533 559.57315,342.79133 550.8489,284.5 c -1.79043,-11.96278 -1.79043,-51.03722 0,-63 8.72434,-58.29188 31.32303,-104.96777 70.13052,-144.849277 C 655.50189,41.172822 693.98307,18.9813 742.73651,6.4352149 774.76361,-1.8065531 829.06199,-2.0366155 861.5,5.9320136 908.09441,17.378263 949.11489,40.345655 982.38462,73.615385 c 40.71698,40.717015 67.20078,95.485385 72.12328,149.151035 4.9667,54.1466 -2.4168,98.73012 -23.4724,141.73358 -29.6442,60.54433 -83.60159,107.92294 -146.66035,128.77878 -30.47009,10.07757 -53.38983,13.83111 -82.86902,13.57139 -9.35337,-0.0824 -18.35613,-0.31051 -20.00613,-0.50688 z"
       id="path2900" />
    <path
       style="fill:#e68c90"
       d="m 769,894.35077 c -2.475,-0.1649 -12.15,-0.79662 -21.5,-1.40382 C 587.51123,882.55706 427.8345,819.39523 300,715.93356 236.96217,664.91447 178.39531,600.69952 134.52462,534.5 50.306223,407.41703 4.2015664,262.02306 0.31044622,111.24705 L -0.31545667,86.994101 166.09227,87.247051 332.5,87.5 l 0.64877,19 c 2.68387,78.60088 25.88228,157.762 65.57406,223.76173 22.28814,37.06086 42.95567,63.59767 72.68672,93.32872 51.77036,51.77037 111.37751,89.19204 178.80953,112.25754 47.39379,16.21131 90.01252,24.1772 138.9926,25.97918 L 807.5,562.5 807.75294,728.75 808.00588,895 790.75294,894.82529 C 781.26382,894.7292 771.475,894.51567 769,894.35077 z m 10.5,-389.00748 c -36.67241,-4.36461 -57.81496,-10.44716 -88,-25.3169 C 661.8927,465.44125 645.44704,453.4253 621.4797,428.86637 600.02065,406.87764 588.01639,389.76811 574.91623,362.5 557.51435,326.2778 550.03466,293.36084 550.03466,253 c 0,-40.36084 7.47969,-73.2778 24.88157,-109.5 13.10689,-27.28212 25.1197,-44.400387 46.56347,-66.352986 23.36778,-23.92227 40.73998,-36.73453 68.56543,-50.568039 C 715.55762,13.895362 738.83335,6.4520993 766,2.2896396 c 16.31164,-2.4992603 57.80617,-2.48881353 74,0.01863 28.02161,4.3388517 48.49889,10.8419154 74.5,23.6592984 28.01727,13.811261 45.90334,26.569108 67.43333,48.099099 21.52997,21.529991 34.28787,39.416063 48.09907,67.433333 12.8174,26.00111 19.3205,46.47839 23.6593,74.5 2.5193,16.27047 2.5193,57.72953 0,74 -4.1907,27.06515 -10.732,48.06429 -22.6052,72.56863 -13.6116,28.09189 -27.1897,47.32051 -48.62028,68.85336 C 960.90196,453.08916 942.99178,465.95691 915,479.89375 877.90624,498.36237 843.71123,506.18289 801.50613,505.85017 791.05276,505.76776 781.15,505.53966 779.5,505.34329 z"
       id="path2898" />
    <path
       style="fill:#e07075"
       d="M 768.5,894.35055 C 724.32593,891.7977 677.33707,885.65304 639.49204,877.48038 375.43048,820.45609 159.03142,638.4114 58.234236,388.5 23.01124,301.16989 2.6823442,204.03123 0.31618573,111.74705 L -0.31847774,86.994101 166.09076,87.247051 332.5,87.5 l 0.64154,20 c 3.3211,103.53609 39.53949,199.38312 106.56131,282 12.53857,15.45612 50.34103,53.25858 65.79715,65.79715 82.89102,67.24422 177.74998,102.96877 282.92869,106.55296 L 807.5,562.5 807.75294,728.75 808.00588,895 790.75294,894.81975 C 781.26382,894.72062 771.25,894.50947 768.5,894.35055 z m 13,-389.00726 c -35.30462,-4.20182 -59.78317,-11.0828 -88,-24.73702 -26.92498,-13.02908 -45.85385,-26.17504 -66.3721,-46.09496 -20.12106,-19.5343 -34.89796,-39.32758 -47.65165,-63.82818 -14.44,-27.7401 -22.20018,-51.92392 -27.6547,-86.18313 -1.69079,-10.61962 -1.69079,-52.38038 0,-63 5.45452,-34.25921 13.2147,-58.44303 27.6547,-86.18313 12.7553,-24.50368 27.53458,-44.299364 47.65165,-63.825612 C 664.16453,35.542356 710.05184,12.524227 764,2.833065 c 10.8905,-1.95635158 15.91215,-2.24548028 39,-2.24548028 23.17508,0 28.06836,0.28387608 39,2.26252458 28.06833,5.0804232 48.07365,11.5961447 72.5,23.6132127 34.49574,16.970922 61.91285,38.642031 84.81115,67.036678 22.23155,27.56785 40.51945,64.19302 49.17305,98.47878 5.8593,23.21429 6.9282,32.62939 6.9282,61.02122 0,23.17508 -0.2839,28.06836 -2.2625,39 -5.0804,28.06833 -11.5962,48.07365 -23.6132,72.5 -25.6089,52.0536 -62.42238,88.97839 -114.56211,114.9085 -26.40564,13.13205 -55.13386,21.75705 -83.53397,25.07919 -11.5248,1.34813 -41.48896,1.86148 -49.94062,0.8556 z"
       id="path2896" />
    <path
       style="fill:#d8494f"
       d="m 764.05412,894.25234 c -5.19523,-0.18292 -9.92023,-0.70702 -10.5,-1.16467 C 752.97436,892.63002 747.55,891.94118 741.5,891.55691 683.49384,887.87265 608.86746,872.49483 547,851.47744 277.01217,759.75816 72.901439,527.50237 16.652738,248 10.558832,217.7191 5.1175039,178.63167 3.4278676,153 3.0471805,147.225 2.3478151,142.00707 1.8737224,141.40461 1.3996297,140.80214 0.70999564,128.23806 0.34120221,113.48443 -0.2904943,88.213326 -0.22817752,86.698462 1.4171218,87.329823 2.377671,87.69842 77.081986,88 167.42671,88 l 164.26314,0 0.61961,19.75 c 2.84996,90.84155 34.92929,184.49465 88.36257,257.96764 16.30566,22.42096 28.22432,36.23871 50.29797,58.31236 37.55097,37.55098 72.75339,63.47964 117.53,86.56781 63.07887,32.52535 141.81615,52.38487 207.75,52.39976 L 807,563 l 0,164.41821 c 0,90.43002 0.27314,165.13002 0.60699,166 0.54095,1.40971 -1.28128,1.55921 -16.75,1.37425 -9.54635,-0.11415 -21.60763,-0.3572 -26.80287,-0.54012 z M 779.5,504.34329 c -35.22938,-4.19287 -57.33795,-10.36846 -85,-23.74306 C 667.3512,467.47378 648.5872,454.40001 627.65072,434.02316 612.80478,419.57405 603.28773,408.19001 592.51936,392 c -8.58146,-12.90204 -21.55033,-38.51087 -26.9716,-53.25916 -19.37685,-52.71375 -19.37223,-118.92327 0.012,-171.48168 4.77043,-12.93457 16.8758,-37.55575 23.97214,-48.75705 C 603.20544,96.918875 624.29122,73.076027 643.49133,57.487176 676.66774,30.550766 718.43498,11.346682 758,4.8374461 c 6.875,-1.1310749 13.58062,-2.5697128 14.90139,-3.196973 3.3786,-1.60457407 56.88897,-1.581126 60.19722,0.026378 1.32077,0.6417682 6.00139,1.6837992 10.40139,2.3156243 23.17399,3.3277064 45.91138,10.6299326 70,22.4808466 26.9967,13.281609 47.69817,27.965616 67.88462,48.152063 20.18648,20.186446 34.87048,40.887915 48.15208,67.884615 11.8509,24.08862 19.1531,46.82601 22.4808,70 0.6318,4.4 1.6739,9.08062 2.3156,10.40139 0.8033,1.65309 1.1669,11.03213 1.1669,30.09861 0,19.06648 -0.3636,28.44552 -1.1669,30.09861 -0.6417,1.32077 -1.6838,6.00139 -2.3156,10.40139 -3.3277,23.17399 -10.6299,45.91138 -22.4808,70 -25.6915,52.22152 -63.24489,89.89008 -115.5462,115.90061 -36.05987,17.93332 -70.73552,25.77868 -112.48437,25.44956 C 791.05276,504.76776 781.15,504.53966 779.5,504.34329 z"
       id="path2894" />
    <path
       style="fill:#d63d43"
       d="m 763.71363,894.25406 c -5.3825,-0.18005 -9.55753,-0.69761 -9.27785,-1.15015 0.27968,-0.45253 -4.54146,-1.13975 -10.71364,-1.52715 C 717.51249,889.9317 669.71538,883.00947 639.5,876.48276 485.46013,843.20919 348.70899,768.7189 237.49504,657.50496 142.16469,562.1746 74.740971,449.80361 35.480187,320.81914 19.131987,267.10997 6.6386658,200.83734 3.3903506,150.59394 3.0158361,144.80113 2.3940561,140.25646 2.0086173,140.49467 1.171822,141.01184 0.00880101,117.52245 0.00362047,100 L -7.5172064e-5,87.5 164.74996,87.749587 c 90.61252,0.137273 165.24197,0.433571 165.84323,0.658441 0.71299,0.266659 1.30803,7.48345 1.71093,20.750412 2.6056,85.80012 30.26962,171.17468 79.01227,243.84156 30.09018,44.85927 69.73474,86.4096 112.18361,117.57642 73.82623,54.20473 155.94434,84.65731 246.5,91.41177 7.425,0.55383 18.57662,1.00805 24.78138,1.00938 8.10644,0.002 11.41339,0.35422 11.75042,1.25243 0.25796,0.6875 0.58134,75.38752 0.71861,166.00004 l 0.24959,164.75004 -17,-0.20933 c -9.35,-0.11513 -21.40386,-0.35664 -26.78637,-0.53669 z M 781.5,504.34329 c -35.30462,-4.20182 -59.78317,-11.0828 -88,-24.73702 -27.40062,-13.25924 -43.41143,-24.5749 -65.8561,-46.54385 -21.74972,-21.28873 -34.69285,-38.41372 -47.21485,-62.46972 -14.39027,-27.64512 -22.15907,-51.87177 -27.6075,-86.0927 -0.76853,-4.82702 -1.27371,-17.32064 -1.27371,-31.5 0,-23.64655 0.49415,-29.01378 4.60338,-50 6.79574,-34.70647 23.47997,-71.99207 45.19224,-100.99473 8.73327,-11.665663 32.009,-35.657139 44.15654,-45.514384 27.17694,-22.053001 60.95751,-38.759993 97,-47.9736762 7.15,-1.8277825 17.13801,-3.8994865 22.19557,-4.6037866 5.05756,-0.7043002 9.00906,-1.5823248 8.7811,-1.9511657 -1.04782,-1.6954196 34.58984,-2.60680074 51.24223,-1.310445 4.52039,0.3519037 8.03238,0.941604 7.80443,1.310445 -0.22796,0.3688409 3.72354,1.2558585 8.7811,1.9711501 23.36163,3.3040363 48.56244,11.4077954 73.19557,23.5373084 26.95153,13.271109 45.13845,26.301068 66.43333,47.595951 21.29487,21.294882 34.32487,39.481803 47.59597,66.433333 12.1295,24.63313 20.2333,49.83394 23.5373,73.19557 0.7153,5.05756 1.6023,9.00906 1.9711,8.7811 0.3689,-0.22795 0.9586,3.28404 1.3105,7.80443 1.2963,16.65239 0.385,52.29005 -1.3105,51.24223 -0.3688,-0.22796 -1.2558,3.72354 -1.9711,8.7811 -4.2971,30.38341 -18.5211,68.44164 -35.9342,96.14689 -13.1417,20.90917 -35.62607,46.13322 -55.16618,61.88803 -35.82157,28.88224 -83.33448,48.74507 -129.5256,54.14834 -11.5248,1.34813 -41.48896,1.86148 -49.94062,0.8556 z"
       id="path2892" />
    <path
       style="fill:#d12229;filter:url(#filter2900)"
       d="m 763.5,894 -10,-0.61267 10,-0.36837 c 5.5,-0.20261 7.975,-0.50107 5.5,-0.66326 -43.55408,-2.85409 -67.72719,-5.511 -98.5,-10.82631 C 307.63081,818.8519 34.653781,520.42615 4.5544634,153.5 3.6972395,143.05 2.8585086,131.575 2.6906169,128 2.4403311,122.67054 2.3199763,123.30083 2.0222884,131.5 l -0.3630708,10 -0.70238681,-11 C -0.16172992,112.98235 -0.13594515,87 1,87 c 0.55,0 1,0.45 1,1 0,0.66261 55.448308,1 164.34492,1 l 164.34493,0 0.61961,19.75 c 3.18405,101.49039 40.42914,199.20409 107.39339,281.75 12.53857,15.45612 50.34103,53.25858 65.79715,65.79715 78.25064,63.47977 167.79692,99.32887 266.5,106.69104 7.425,0.55383 18.3375,1.00805 24.25,1.00938 L 806,564 l 0,164.5 c 0,109 0.33739,164.5 1,164.5 0.55,0 1,0.45 1,1 0,1.07766 -26.91031,1.07766 -44.5,0 z m 17,-390.65671 c -34.84774,-4.14745 -59.70646,-11.07372 -87,-24.24042 -25.79856,-12.4455 -45.08543,-25.89648 -65.3721,-45.59156 C 587.03717,393.61885 563.63369,347.00318 553.81855,285.5 c -1.70367,-10.67546 -1.70367,-54.32454 0,-65 5.42673,-34.0047 13.31826,-58.72979 27.21737,-85.27524 12.391,-23.66516 27.29071,-43.513775 47.09198,-62.733502 C 659.33401,42.201643 696.24817,21.462572 739.32797,10.016968 750.08199,7.1598003 770.63583,3.4685215 780,2.7126517 c 4.20053,-0.3390644 4.10071,-0.3850115 -1.5,-0.6904316 l -6,-0.3271944 6.5,-0.73062842 c 8.40001,-0.94419756 39.59999,-0.94419756 48,0 l 6.5,0.73062842 -6,0.3271944 c -5.60071,0.3054201 -5.70053,0.3513672 -1.5,0.6904316 8.29796,0.6698066 29.21342,4.3065786 38.92409,6.7681051 C 899.24192,18.17988 934.0591,35.559678 961.5,57.688848 c 47.4312,38.249969 79.6609,94.250882 89.4407,155.408282 1.0909,6.82158 2.1469,14.42787 2.3466,16.90287 0.3391,4.20053 0.3851,4.10071 0.6905,-1.5 l 0.3272,-6 0.7306,6.5 c 0.9442,8.40001 0.9442,39.59999 0,48 l -0.7306,6.5 -0.3272,-6 c -0.3054,-5.60071 -0.3514,-5.70053 -0.6905,-1.5 -0.6698,8.29796 -4.3065,29.21342 -6.7681,38.92409 -8.6756,34.22523 -25.8498,68.67164 -48.15057,96.57591 -39.69613,49.67061 -101.24495,83.4213 -165.92801,90.98769 -11.56777,1.35315 -43.35982,1.87685 -51.94062,0.8556 z"
       id="path2890" />
  </g>
</svg>
